<?xml version="1.0" standalone="no"?>
<!DOCTYPE svg PUBLIC "-//W3C//DTD SVG 20010904//EN"
 "http://www.w3.org/TR/2001/REC-SVG-20010904/DTD/svg10.dtd">
<svg version="1.0" xmlns="http://www.w3.org/2000/svg"
 width="200.000000pt" height="200.000000pt" viewBox="0 0 200.000000 200.000000"
 preserveAspectRatio="xMidYMid meet">
<metadata>
Created by potrace 1.14, written by Peter Selinger 2001-2017
</metadata>
<g transform="translate(0.000000,200.000000) scale(0.100000,-0.100000)"
fill="#000000" stroke="none">
<path d="M0 1000 l0 -1000 1000 0 1000 0 0 1000 0 1000 -1000 0 -1000 0 0
-1000z m1235 654 c110 -26 203 -79 285 -163 67 -68 143 -182 130 -194 -19 -18
-336 -155 -338 -147 -14 40 -74 109 -120 137 -160 95 -367 14 -428 -170 -23
-71 -16 -206 15 -267 30 -58 85 -116 136 -142 57 -30 171 -36 232 -13 55 21
135 92 153 135 7 17 15 30 19 30 10 0 315 -141 325 -150 11 -11 -35 -94 -87
-158 -130 -158 -305 -229 -542 -219 -205 8 -346 67 -480 202 -131 130 -187
272 -187 472 0 304 178 544 468 632 136 42 286 47 419 15z"/>
</g>
</svg>
