<svg xmlns="http://www.w3.org/2000/svg" xmlns:xlink="http://www.w3.org/1999/xlink" width="500" zoomAndPan="magnify" viewBox="0 0 375 374.999991" height="500" preserveAspectRatio="xMidYMid meet" version="1.0"><defs><g/><clipPath id="0ce5910082"><path d="M 220 149 L 230.65625 149 L 230.65625 155 L 220 155 Z M 220 149 " clip-rule="nonzero"/></clipPath><clipPath id="e929a709d4"><path d="M 220 151 L 230.65625 151 L 230.65625 155 L 220 155 Z M 220 151 " clip-rule="nonzero"/></clipPath><clipPath id="ea08f125c8"><path d="M 173 118.175781 L 203 118.175781 L 203 171 L 173 171 Z M 173 118.175781 " clip-rule="nonzero"/></clipPath><clipPath id="84ea9726b5"><path d="M 144.453125 127.074219 L 220 127.074219 L 220 193.925781 L 144.453125 193.925781 Z M 144.453125 127.074219 " clip-rule="nonzero"/></clipPath></defs><rect x="-37.5" width="450" fill="#ffffff" y="-37.499999" height="449.999989" fill-opacity="1"/><rect x="-37.5" width="450" fill="#ffffff" y="-37.499999" height="449.999989" fill-opacity="1"/><rect x="-37.5" width="450" fill="#000000" y="-37.499999" height="449.999989" fill-opacity="1"/><path fill="#d5ea64" d="M 217.640625 140.980469 C 217.640625 140.980469 216.078125 143.820312 216.742188 146.496094 C 217.402344 149.171875 220.167969 151.199219 220.167969 151.199219 C 220.167969 151.199219 221.671875 148.121094 221.007812 145.445312 C 220.347656 142.769531 217.640625 140.980469 217.640625 140.980469 " fill-opacity="1" fill-rule="nonzero"/><path fill="#c8df5d" d="M 217.640625 140.980469 L 220.167969 151.199219 C 220.167969 151.199219 221.671875 148.121094 221.007812 145.445312 C 220.347656 142.769531 217.640625 140.980469 217.640625 140.980469 " fill-opacity="1" fill-rule="nonzero"/><g clip-path="url(#0ce5910082)"><path fill="#d5ea64" d="M 230.605469 152.558594 C 230.605469 152.558594 228.523438 150.078125 225.785156 149.722656 C 223.042969 149.367188 220.148438 151.207031 220.148438 151.207031 C 220.148438 151.207031 222.476562 153.71875 225.21875 154.074219 C 227.957031 154.429688 230.605469 152.558594 230.605469 152.558594 " fill-opacity="1" fill-rule="nonzero"/></g><g clip-path="url(#e929a709d4)"><path fill="#c8df5d" d="M 230.605469 152.558594 L 220.148438 151.207031 C 220.148438 151.207031 222.476562 153.71875 225.21875 154.074219 C 227.957031 154.429688 230.605469 152.558594 230.605469 152.558594 " fill-opacity="1" fill-rule="nonzero"/></g><path fill="#d5ea64" d="M 217.878906 161.980469 L 215.65625 161.980469 C 215.65625 156.015625 218.1875 150.429688 222.261719 147.40625 L 223.589844 149.1875 C 220.066406 151.800781 217.878906 156.703125 217.878906 161.980469 " fill-opacity="1" fill-rule="nonzero"/><g clip-path="url(#ea08f125c8)"><path fill="#dedddf" d="M 173.257812 135.574219 C 175.917969 125.613281 180.789062 118.175781 180.789062 118.175781 C 187.171875 132.433594 199.253906 130.632812 202.820312 146.691406 L 202.820312 170.148438 L 173.257812 147.90625 L 173.257812 135.574219 " fill-opacity="1" fill-rule="nonzero"/></g><g clip-path="url(#84ea9726b5)"><path fill="#f8f9f9" d="M 208.664062 144.203125 C 201.8125 144.203125 198.121094 153.433594 197.558594 154.949219 C 197.269531 152.28125 196.121094 149.5 193.632812 146.324219 C 186.703125 137.488281 168.21875 136.050781 154.359375 127.113281 C 154.359375 127.113281 151.519531 138.5625 158.464844 148.371094 C 158.464844 148.375 160.28125 171.300781 175.964844 176.164062 L 175.921875 176.203125 C 175.921875 176.203125 167.066406 180.308594 144.453125 175.554688 C 144.453125 175.554688 160.226562 201.144531 192 191.929688 C 214.578125 185.378906 210.679688 157.492188 219.847656 154 C 217.128906 150.003906 215.851562 144.203125 208.664062 144.203125 " fill-opacity="1" fill-rule="nonzero"/></g><path fill="#737579" d="M 209.726562 150.769531 C 210.703125 150.769531 211.492188 151.554688 211.492188 152.53125 C 211.492188 153.503906 210.703125 154.289062 209.726562 154.289062 C 208.753906 154.289062 207.960938 153.503906 207.960938 152.53125 C 207.960938 151.554688 208.753906 150.769531 209.726562 150.769531 " fill-opacity="1" fill-rule="nonzero"/><path fill="#d5ea64" d="M 229.8125 142.78125 C 229.8125 142.78125 226.574219 142.578125 224.425781 144.3125 C 222.28125 146.046875 221.617188 149.40625 221.617188 149.40625 C 221.617188 149.40625 225.046875 149.457031 227.195312 147.71875 C 229.339844 145.984375 229.8125 142.78125 229.8125 142.78125 " fill-opacity="1" fill-rule="nonzero"/><path fill="#c8df5d" d="M 229.8125 142.78125 L 221.617188 149.40625 C 221.617188 149.40625 225.046875 149.457031 227.195312 147.71875 C 229.339844 145.984375 229.8125 142.78125 229.8125 142.78125 " fill-opacity="1" fill-rule="nonzero"/><g fill="#f8f9f9" fill-opacity="1"><g transform="translate(50.165179, 234.369852)"><g><path d="M 17.246094 -17.769531 L 17.539062 -17.769531 L 17.539062 -22.464844 C 17.183594 -22.300781 16.855469 -22.5625 16.464844 -22.820312 C 14.574219 -24.191406 12.097656 -24.910156 9.324219 -24.910156 C 7.109375 -24.910156 4.664062 -24.355469 3 -22.984375 C -0.0976562 -20.410156 0.585938 -15.8125 4.011719 -13.890625 C 6.226562 -12.683594 8.835938 -12.160156 11.214844 -11.214844 C 13.367188 -10.335938 15.617188 -8.964844 15.617188 -6.324219 C 15.617188 -3.421875 13.335938 -0.878906 9.714844 -0.878906 C 7.792969 -0.878906 6.0625 -1.335938 4.5 -2.414062 C 1.304688 -4.628906 0.945312 -7.042969 0.945312 -10.695312 L 0.652344 -10.695312 L 0 -3 C 0.457031 -3.128906 0.914062 -2.804688 1.171875 -2.574219 C 3.390625 -0.652344 7.007812 0.457031 9.585938 0.457031 C 11.996094 0.457031 14.574219 -0.226562 16.53125 -1.726562 C 20.441406 -4.726562 20.636719 -10.140625 16.433594 -12.976562 C 13.691406 -14.835938 9.714844 -15.617188 6.910156 -16.824219 C 4.988281 -17.671875 4.5625 -19.628906 5.152344 -21.09375 C 5.964844 -22.984375 8.445312 -23.636719 10.007812 -23.605469 C 13.953125 -23.605469 17.082031 -21.777344 17.246094 -17.769531 Z M 17.246094 -17.769531 "/></g></g></g><g fill="#f8f9f9" fill-opacity="1"><g transform="translate(71.779957, 234.369852)"><g><path d="M 0.585938 -20.117188 L 0.585938 -4.335938 C 0.585938 -2.671875 0.457031 -1.238281 0 0 L 4.921875 0 C 4.464844 -1.238281 4.335938 -2.671875 4.335938 -4.335938 C 4.335938 -7.007812 4.335938 -17.441406 4.335938 -20.117188 C 4.335938 -21.777344 4.464844 -23.214844 4.921875 -24.453125 L 0 -24.453125 C 0.457031 -23.214844 0.585938 -21.777344 0.585938 -20.117188 Z M 0.585938 -20.117188 "/></g></g></g><g fill="#f8f9f9" fill-opacity="1"><g transform="translate(78.887034, 234.369852)"><g><path d="M 4.304688 0 C 2.316406 -1.140625 1.859375 -3.75 1.859375 -5.835938 L 1.859375 -21.09375 L 10.398438 -4.5625 L 11.835938 -4.5625 L 20.703125 -21.679688 L 20.703125 -4.335938 C 20.703125 -2.671875 20.605469 -1.238281 20.117188 0 L 25.070312 0 C 24.582031 -1.238281 24.484375 -2.671875 24.484375 -4.335938 C 24.484375 -7.007812 24.484375 -17.441406 24.484375 -20.117188 C 24.484375 -21.777344 24.582031 -23.214844 25.070312 -24.453125 L 20.703125 -24.453125 L 12.519531 -8.671875 L 4.367188 -24.453125 L 0.128906 -24.453125 L 0.585938 -23.539062 L 0.585938 -4.335938 C 0.585938 -2.671875 0.457031 -1.238281 0 0 Z M 4.304688 0 "/></g></g></g><g fill="#f8f9f9" fill-opacity="1"><g transform="translate(106.044087, 234.369852)"><g><path d="M 9.652344 -24.453125 L 0 -24.453125 C 0.457031 -23.214844 0.585938 -21.777344 0.585938 -20.117188 C 0.585938 -17.441406 0.585938 -7.007812 0.585938 -4.335938 C 0.585938 -2.671875 0.457031 -1.238281 0 0 C 1.433594 0 3.488281 0 4.921875 0 C 4.464844 -1.238281 4.335938 -2.671875 4.335938 -4.335938 L 4.335938 -5.019531 C 4.335938 -12.84375 17.605469 -11.445312 17.605469 -19.269531 C 17.605469 -22.105469 15.09375 -24.453125 9.652344 -24.453125 Z M 4.335938 -8.933594 L 4.335938 -23.3125 L 6.292969 -23.3125 C 10.203125 -23.3125 13.726562 -22.429688 13.824219 -19.429688 C 14.019531 -14.410156 7.074219 -13.5625 4.335938 -8.933594 Z M 4.335938 -8.933594 "/></g></g></g><g fill="#f8f9f9" fill-opacity="1"><g transform="translate(125.735381, 234.369852)"><g><path d="M 4.335938 -20.117188 C 4.335938 -21.777344 4.464844 -23.214844 4.921875 -24.453125 L 0 -24.453125 C 0.457031 -23.214844 0.585938 -21.777344 0.585938 -20.117188 C 0.585938 -17.441406 0.585938 -7.007812 0.585938 -4.335938 C 0.585938 -2.671875 0.457031 -1.238281 0 0 L 16.171875 0 L 16.398438 -3.714844 L 16.105469 -3.714844 C 15.84375 -3.03125 14.738281 -1.273438 11.835938 -1.273438 L 4.335938 -1.273438 Z M 4.335938 -20.117188 "/></g></g></g><g fill="#f8f9f9" fill-opacity="1"><g transform="translate(144.285619, 234.369852)"><g><path d="M 13.238281 -13.53125 L 18.484375 -19.953125 C 19.953125 -21.746094 20.929688 -22.855469 22.722656 -24.453125 L 19.855469 -24.453125 C 19.300781 -23.277344 18.550781 -22.171875 17.867188 -21.191406 L 12.226562 -14.28125 L 7.207031 -21.484375 C 6.519531 -22.464844 6 -23.277344 5.476562 -24.453125 L 0 -24.453125 C 0.945312 -23.570312 2.28125 -21.941406 3.03125 -20.867188 L 9.453125 -11.640625 L 9.453125 -4.335938 C 9.453125 -2.671875 9.355469 -1.238281 8.902344 0 L 13.824219 0 C 13.367188 -1.238281 13.238281 -2.671875 13.238281 -4.335938 Z M 13.238281 -13.53125 "/></g></g></g><g fill="#f8f9f9" fill-opacity="1"><g transform="translate(169.160566, 234.369852)"><g><path d="M 9.324219 0 L 13.335938 0 L 17.574219 -11.738281 L 21.84375 0 L 25.855469 0 L 33.125 -20.117188 C 33.644531 -21.582031 34.460938 -23.246094 35.144531 -24.453125 L 30.84375 -24.453125 C 31.65625 -23.148438 32.308594 -21.617188 31.789062 -20.179688 L 25.167969 -1.890625 L 18.519531 -20.179688 C 18.03125 -21.617188 17.476562 -23.3125 17.441406 -24.453125 L 12.519531 -24.453125 C 13.203125 -23.246094 14.019531 -21.582031 14.539062 -20.117188 L 16.886719 -13.628906 L 12.648438 -1.890625 L 6.03125 -20.179688 C 5.511719 -21.617188 4.957031 -23.3125 4.921875 -24.453125 L 0 -24.453125 C 0.71875 -23.246094 1.5 -21.582031 2.019531 -20.117188 Z M 9.324219 0 "/></g></g></g><g fill="#f8f9f9" fill-opacity="1"><g transform="translate(206.48932, 234.369852)"><g><path d="M 12.683594 -24.910156 C 5.671875 -24.910156 0 -19.234375 0 -12.226562 C 0 -5.214844 5.671875 0.457031 12.683594 0.457031 C 19.691406 0.457031 25.363281 -5.214844 25.363281 -12.226562 C 25.363281 -19.234375 19.691406 -24.910156 12.683594 -24.910156 Z M 18.160156 -2.28125 C 13.890625 0.0664062 8.019531 -2.511719 4.988281 -8.019531 C 1.957031 -13.496094 2.96875 -19.855469 7.207031 -22.203125 C 11.445312 -24.515625 17.34375 -21.941406 20.375 -16.464844 C 23.375 -10.953125 22.398438 -4.597656 18.160156 -2.28125 Z M 18.160156 -2.28125 "/></g></g></g><g fill="#f8f9f9" fill-opacity="1"><g transform="translate(234.004993, 234.369852)"><g><path d="M 9.652344 -24.453125 L 0 -24.453125 C 0.457031 -23.214844 0.585938 -21.777344 0.585938 -20.117188 C 0.585938 -17.441406 0.585938 -7.007812 0.585938 -4.335938 C 0.585938 -2.671875 0.457031 -1.238281 0 0 C 1.433594 0 3.488281 0 4.921875 0 C 4.464844 -1.238281 4.335938 -2.671875 4.335938 -4.335938 L 4.335938 -5.019531 C 4.335938 -7.628906 5.804688 -9.195312 7.757812 -10.433594 L 11.769531 -2.902344 C 12.292969 -1.957031 12.648438 -1.042969 12.878906 0 L 18.0625 0 C 17.246094 -1.042969 16.074219 -2.902344 15.289062 -4.335938 L 11.085938 -12.195312 C 14.378906 -13.792969 17.605469 -15.421875 17.605469 -19.269531 C 17.605469 -22.105469 15.09375 -24.453125 9.652344 -24.453125 Z M 4.335938 -8.933594 L 4.335938 -23.3125 L 6.292969 -23.3125 C 10.203125 -23.3125 13.726562 -22.429688 13.824219 -19.429688 C 14.019531 -14.410156 7.074219 -13.5625 4.335938 -8.933594 Z M 4.335938 -8.933594 "/></g></g></g><g fill="#f8f9f9" fill-opacity="1"><g transform="translate(254.152701, 234.369852)"><g><path d="M 17.246094 -17.769531 L 17.539062 -17.769531 L 17.539062 -22.464844 C 17.183594 -22.300781 16.855469 -22.5625 16.464844 -22.820312 C 14.574219 -24.191406 12.097656 -24.910156 9.324219 -24.910156 C 7.109375 -24.910156 4.664062 -24.355469 3 -22.984375 C -0.0976562 -20.410156 0.585938 -15.8125 4.011719 -13.890625 C 6.226562 -12.683594 8.835938 -12.160156 11.214844 -11.214844 C 13.367188 -10.335938 15.617188 -8.964844 15.617188 -6.324219 C 15.617188 -3.421875 13.335938 -0.878906 9.714844 -0.878906 C 7.792969 -0.878906 6.0625 -1.335938 4.5 -2.414062 C 1.304688 -4.628906 0.945312 -7.042969 0.945312 -10.695312 L 0.652344 -10.695312 L 0 -3 C 0.457031 -3.128906 0.914062 -2.804688 1.171875 -2.574219 C 3.390625 -0.652344 7.007812 0.457031 9.585938 0.457031 C 11.996094 0.457031 14.574219 -0.226562 16.53125 -1.726562 C 20.441406 -4.726562 20.636719 -10.140625 16.433594 -12.976562 C 13.691406 -14.835938 9.714844 -15.617188 6.910156 -16.824219 C 4.988281 -17.671875 4.5625 -19.628906 5.152344 -21.09375 C 5.964844 -22.984375 8.445312 -23.636719 10.007812 -23.605469 C 13.953125 -23.605469 17.082031 -21.777344 17.246094 -17.769531 Z M 17.246094 -17.769531 "/></g></g></g><g fill="#f8f9f9" fill-opacity="1"><g transform="translate(275.767469, 234.369852)"><g><path d="M 4.335938 -4.335938 L 4.335938 -10.5625 L 15.226562 -10.5625 L 15.226562 -4.335938 C 15.226562 -2.671875 15.09375 -1.238281 14.640625 0 L 19.5625 0 C 19.105469 -1.238281 18.976562 -2.671875 18.976562 -4.335938 C 18.976562 -7.007812 18.976562 -17.441406 18.976562 -20.117188 C 18.976562 -21.777344 19.105469 -23.214844 19.5625 -24.453125 L 14.640625 -24.453125 C 15.09375 -23.214844 15.226562 -21.777344 15.226562 -20.117188 L 15.226562 -11.835938 L 4.335938 -11.835938 L 4.335938 -20.117188 C 4.335938 -21.777344 4.464844 -23.214844 4.921875 -24.453125 L 0 -24.453125 C 0.457031 -23.214844 0.585938 -21.777344 0.585938 -20.117188 C 0.585938 -17.441406 0.585938 -7.007812 0.585938 -4.335938 C 0.585938 -2.671875 0.457031 -1.238281 0 0 L 4.921875 0 C 4.464844 -1.238281 4.335938 -2.671875 4.335938 -4.335938 Z M 4.335938 -4.335938 "/></g></g></g><g fill="#f8f9f9" fill-opacity="1"><g transform="translate(297.414858, 234.369852)"><g><path d="M 0.585938 -20.117188 L 0.585938 -4.335938 C 0.585938 -2.671875 0.457031 -1.238281 0 0 L 4.921875 0 C 4.464844 -1.238281 4.335938 -2.671875 4.335938 -4.335938 C 4.335938 -7.007812 4.335938 -17.441406 4.335938 -20.117188 C 4.335938 -21.777344 4.464844 -23.214844 4.921875 -24.453125 L 0 -24.453125 C 0.457031 -23.214844 0.585938 -21.777344 0.585938 -20.117188 Z M 0.585938 -20.117188 "/></g></g></g><g fill="#f8f9f9" fill-opacity="1"><g transform="translate(304.521937, 234.369852)"><g><path d="M 9.652344 -24.453125 L 0 -24.453125 C 0.457031 -23.214844 0.585938 -21.777344 0.585938 -20.117188 C 0.585938 -17.441406 0.585938 -7.007812 0.585938 -4.335938 C 0.585938 -2.671875 0.457031 -1.238281 0 0 C 1.433594 0 3.488281 0 4.921875 0 C 4.464844 -1.238281 4.335938 -2.671875 4.335938 -4.335938 L 4.335938 -5.019531 C 4.335938 -12.84375 17.605469 -11.445312 17.605469 -19.269531 C 17.605469 -22.105469 15.09375 -24.453125 9.652344 -24.453125 Z M 4.335938 -8.933594 L 4.335938 -23.3125 L 6.292969 -23.3125 C 10.203125 -23.3125 13.726562 -22.429688 13.824219 -19.429688 C 14.019531 -14.410156 7.074219 -13.5625 4.335938 -8.933594 Z M 4.335938 -8.933594 "/></g></g></g><g fill="#ffffff" fill-opacity="1"><g transform="translate(108.811181, 253.039173)"><g><path d="M 4.375 -6 C 4.75 -5.65625 4.9375 -5.195312 4.9375 -4.625 C 4.9375 -4.0625 4.75 -3.601562 4.375 -3.25 C 4 -2.90625 3.441406 -2.734375 2.703125 -2.734375 L 1.375 -2.734375 L 1.375 0 L 0.703125 0 L 0.703125 -6.53125 L 2.703125 -6.53125 C 3.441406 -6.53125 4 -6.351562 4.375 -6 Z M 1.375 -3.28125 L 2.703125 -3.28125 C 3.742188 -3.28125 4.265625 -3.734375 4.265625 -4.640625 C 4.265625 -5.546875 3.742188 -6 2.703125 -6 L 1.375 -6 Z M 1.375 -3.28125 "/></g></g></g><g fill="#ffffff" fill-opacity="1"><g transform="translate(116.97114, 253.039173)"><g><path d="M 1.375 -2.734375 L 1.375 0 L 0.703125 0 L 0.703125 -6.53125 L 2.703125 -6.53125 C 3.441406 -6.53125 4 -6.351562 4.375 -6 C 4.75 -5.65625 4.9375 -5.210938 4.9375 -4.671875 C 4.9375 -4.140625 4.785156 -3.707031 4.484375 -3.375 C 4.191406 -3.039062 3.753906 -2.835938 3.171875 -2.765625 L 5.03125 0 L 4.171875 0 L 2.390625 -2.734375 Z M 1.375 -6 L 1.375 -3.28125 L 2.703125 -3.28125 C 3.742188 -3.28125 4.265625 -3.734375 4.265625 -4.640625 C 4.265625 -5.546875 3.742188 -6 2.703125 -6 Z M 1.375 -6 "/></g></g></g><g fill="#ffffff" fill-opacity="1"><g transform="translate(125.519215, 253.039173)"><g><path d="M 4.03125 -6.53125 L 4.03125 -6 L 1.375 -6 L 1.375 -3.546875 L 3.75 -3.546875 L 3.75 -3.015625 L 1.375 -3.015625 L 1.375 -0.53125 L 4.03125 -0.53125 L 4.03125 0 L 0.703125 0 L 0.703125 -6.53125 Z M 4.03125 -6.53125 "/></g></g></g><g fill="#ffffff" fill-opacity="1"><g transform="translate(132.969204, 253.039173)"><g><path d="M 1.1875 -4.8125 C 1.1875 -4.550781 1.253906 -4.335938 1.390625 -4.171875 C 1.523438 -4.003906 1.695312 -3.878906 1.90625 -3.796875 C 2.125 -3.722656 2.363281 -3.65625 2.625 -3.59375 C 2.882812 -3.539062 3.140625 -3.476562 3.390625 -3.40625 C 3.648438 -3.34375 3.890625 -3.253906 4.109375 -3.140625 C 4.328125 -3.035156 4.503906 -2.867188 4.640625 -2.640625 C 4.773438 -2.410156 4.84375 -2.128906 4.84375 -1.796875 C 4.84375 -1.296875 4.65625 -0.859375 4.28125 -0.484375 C 3.90625 -0.117188 3.394531 0.0625 2.75 0.0625 C 2.101562 0.0625 1.578125 -0.0820312 1.171875 -0.375 C 0.765625 -0.664062 0.5625 -1.054688 0.5625 -1.546875 L 1.265625 -1.546875 C 1.296875 -1.242188 1.425781 -0.992188 1.65625 -0.796875 C 1.882812 -0.597656 2.234375 -0.5 2.703125 -0.5 C 3.171875 -0.5 3.539062 -0.617188 3.8125 -0.859375 C 4.082031 -1.097656 4.21875 -1.394531 4.21875 -1.75 C 4.21875 -2.101562 4.09375 -2.367188 3.84375 -2.546875 C 3.59375 -2.734375 3.285156 -2.859375 2.921875 -2.921875 C 2.566406 -2.992188 2.210938 -3.070312 1.859375 -3.15625 C 1.503906 -3.25 1.195312 -3.425781 0.9375 -3.6875 C 0.6875 -3.957031 0.5625 -4.34375 0.5625 -4.84375 C 0.5625 -5.351562 0.75 -5.769531 1.125 -6.09375 C 1.5 -6.425781 1.992188 -6.59375 2.609375 -6.59375 C 3.234375 -6.59375 3.722656 -6.453125 4.078125 -6.171875 C 4.429688 -5.890625 4.644531 -5.507812 4.71875 -5.03125 L 3.96875 -5.03125 C 3.9375 -5.300781 3.800781 -5.535156 3.5625 -5.734375 C 3.320312 -5.929688 2.992188 -6.03125 2.578125 -6.03125 C 2.160156 -6.03125 1.820312 -5.925781 1.5625 -5.71875 C 1.3125 -5.507812 1.1875 -5.207031 1.1875 -4.8125 Z M 1.1875 -4.8125 "/></g></g></g><g fill="#ffffff" fill-opacity="1"><g transform="translate(141.214361, 253.039173)"><g><path d="M 4.03125 -6.53125 L 4.03125 -6 L 1.375 -6 L 1.375 -3.546875 L 3.75 -3.546875 L 3.75 -3.015625 L 1.375 -3.015625 L 1.375 -0.53125 L 4.03125 -0.53125 L 4.03125 0 L 0.703125 0 L 0.703125 -6.53125 Z M 4.03125 -6.53125 "/></g></g></g><g fill="#ffffff" fill-opacity="1"><g transform="translate(148.664352, 253.039173)"><g><path d="M 5.03125 -6.53125 L 5.703125 -6.53125 L 5.703125 0 L 5.03125 0 L 1.375 -5.46875 L 1.375 0 L 0.703125 0 L 0.703125 -6.53125 L 1.375 -6.53125 L 5.03125 -1.0625 Z M 5.03125 -6.53125 "/></g></g></g><g fill="#ffffff" fill-opacity="1"><g transform="translate(157.912924, 253.039173)"><g><path d="M 0.46875 -6 L 0.46875 -6.53125 L 4.546875 -6.53125 L 4.546875 -6 L 2.828125 -6 L 2.828125 0 L 2.171875 0 L 2.171875 -6 Z M 0.46875 -6 "/></g></g></g><g fill="#ffffff" fill-opacity="1"><g transform="translate(165.760489, 253.039173)"><g><path d="M 5.328125 0 L 4.765625 -1.53125 L 1.71875 -1.53125 L 1.171875 0 L 0.5 0 L 2.90625 -6.53125 L 3.59375 -6.53125 L 5.984375 0 Z M 1.90625 -2.0625 L 4.578125 -2.0625 L 3.25 -5.703125 Z M 1.90625 -2.0625 "/></g></g></g><g fill="#ffffff" fill-opacity="1"><g transform="translate(175.084796, 253.039173)"><g><path d="M 0.46875 -6 L 0.46875 -6.53125 L 4.546875 -6.53125 L 4.546875 -6 L 2.828125 -6 L 2.828125 0 L 2.171875 0 L 2.171875 -6 Z M 0.46875 -6 "/></g></g></g><g fill="#ffffff" fill-opacity="1"><g transform="translate(182.932364, 253.039173)"><g><path d="M 0.703125 0 L 0.703125 -6.53125 L 1.375 -6.53125 L 1.375 0 Z M 0.703125 0 "/></g></g></g><g fill="#ffffff" fill-opacity="1"><g transform="translate(187.854872, 253.039173)"><g><path d="M 5.59375 -1.265625 C 6.09375 -1.773438 6.34375 -2.441406 6.34375 -3.265625 C 6.34375 -4.085938 6.09375 -4.75 5.59375 -5.25 C 5.09375 -5.757812 4.460938 -6.015625 3.703125 -6.015625 C 2.941406 -6.015625 2.304688 -5.757812 1.796875 -5.25 C 1.296875 -4.75 1.046875 -4.085938 1.046875 -3.265625 C 1.046875 -2.441406 1.296875 -1.773438 1.796875 -1.265625 C 2.304688 -0.753906 2.941406 -0.5 3.703125 -0.5 C 4.460938 -0.5 5.09375 -0.753906 5.59375 -1.265625 Z M 1.328125 -0.875 C 0.691406 -1.5 0.375 -2.296875 0.375 -3.265625 C 0.375 -4.234375 0.691406 -5.03125 1.328125 -5.65625 C 1.972656 -6.28125 2.765625 -6.59375 3.703125 -6.59375 C 4.640625 -6.59375 5.425781 -6.28125 6.0625 -5.65625 C 6.707031 -5.03125 7.03125 -4.234375 7.03125 -3.265625 C 7.03125 -2.296875 6.707031 -1.5 6.0625 -0.875 C 5.425781 -0.25 4.640625 0.0625 3.703125 0.0625 C 2.765625 0.0625 1.972656 -0.25 1.328125 -0.875 Z M 1.328125 -0.875 "/></g></g></g><g fill="#ffffff" fill-opacity="1"><g transform="translate(198.087936, 253.039173)"><g><path d="M 5.03125 -6.53125 L 5.703125 -6.53125 L 5.703125 0 L 5.03125 0 L 1.375 -5.46875 L 1.375 0 L 0.703125 0 L 0.703125 -6.53125 L 1.375 -6.53125 L 5.03125 -1.0625 Z M 5.03125 -6.53125 "/></g></g></g><g fill="#ffffff" fill-opacity="1"><g transform="translate(207.336508, 253.039173)"><g/></g></g><g fill="#ffffff" fill-opacity="1"><g transform="translate(213.016313, 253.039173)"><g><path d="M 1.1875 -4.8125 C 1.1875 -4.550781 1.253906 -4.335938 1.390625 -4.171875 C 1.523438 -4.003906 1.695312 -3.878906 1.90625 -3.796875 C 2.125 -3.722656 2.363281 -3.65625 2.625 -3.59375 C 2.882812 -3.539062 3.140625 -3.476562 3.390625 -3.40625 C 3.648438 -3.34375 3.890625 -3.253906 4.109375 -3.140625 C 4.328125 -3.035156 4.503906 -2.867188 4.640625 -2.640625 C 4.773438 -2.410156 4.84375 -2.128906 4.84375 -1.796875 C 4.84375 -1.296875 4.65625 -0.859375 4.28125 -0.484375 C 3.90625 -0.117188 3.394531 0.0625 2.75 0.0625 C 2.101562 0.0625 1.578125 -0.0820312 1.171875 -0.375 C 0.765625 -0.664062 0.5625 -1.054688 0.5625 -1.546875 L 1.265625 -1.546875 C 1.296875 -1.242188 1.425781 -0.992188 1.65625 -0.796875 C 1.882812 -0.597656 2.234375 -0.5 2.703125 -0.5 C 3.171875 -0.5 3.539062 -0.617188 3.8125 -0.859375 C 4.082031 -1.097656 4.21875 -1.394531 4.21875 -1.75 C 4.21875 -2.101562 4.09375 -2.367188 3.84375 -2.546875 C 3.59375 -2.734375 3.285156 -2.859375 2.921875 -2.921875 C 2.566406 -2.992188 2.210938 -3.070312 1.859375 -3.15625 C 1.503906 -3.25 1.195312 -3.425781 0.9375 -3.6875 C 0.6875 -3.957031 0.5625 -4.34375 0.5625 -4.84375 C 0.5625 -5.351562 0.75 -5.769531 1.125 -6.09375 C 1.5 -6.425781 1.992188 -6.59375 2.609375 -6.59375 C 3.234375 -6.59375 3.722656 -6.453125 4.078125 -6.171875 C 4.429688 -5.890625 4.644531 -5.507812 4.71875 -5.03125 L 3.96875 -5.03125 C 3.9375 -5.300781 3.800781 -5.535156 3.5625 -5.734375 C 3.320312 -5.929688 2.992188 -6.03125 2.578125 -6.03125 C 2.160156 -6.03125 1.820312 -5.925781 1.5625 -5.71875 C 1.3125 -5.507812 1.1875 -5.207031 1.1875 -4.8125 Z M 1.1875 -4.8125 "/></g></g></g><g fill="#ffffff" fill-opacity="1"><g transform="translate(221.261464, 253.039173)"><g><path d="M 4.03125 -6.53125 L 4.03125 -6 L 1.375 -6 L 1.375 -3.546875 L 3.75 -3.546875 L 3.75 -3.015625 L 1.375 -3.015625 L 1.375 -0.53125 L 4.03125 -0.53125 L 4.03125 0 L 0.703125 0 L 0.703125 -6.53125 Z M 4.03125 -6.53125 "/></g></g></g><g fill="#ffffff" fill-opacity="1"><g transform="translate(228.711449, 253.039173)"><g><path d="M 1.375 -2.734375 L 1.375 0 L 0.703125 0 L 0.703125 -6.53125 L 2.703125 -6.53125 C 3.441406 -6.53125 4 -6.351562 4.375 -6 C 4.75 -5.65625 4.9375 -5.210938 4.9375 -4.671875 C 4.9375 -4.140625 4.785156 -3.707031 4.484375 -3.375 C 4.191406 -3.039062 3.753906 -2.835938 3.171875 -2.765625 L 5.03125 0 L 4.171875 0 L 2.390625 -2.734375 Z M 1.375 -6 L 1.375 -3.28125 L 2.703125 -3.28125 C 3.742188 -3.28125 4.265625 -3.734375 4.265625 -4.640625 C 4.265625 -5.546875 3.742188 -6 2.703125 -6 Z M 1.375 -6 "/></g></g></g><g fill="#ffffff" fill-opacity="1"><g transform="translate(237.259519, 253.039173)"><g><path d="M 2.84375 0 L 0.28125 -6.53125 L 0.96875 -6.53125 L 3.15625 -0.75 L 5.34375 -6.53125 L 6.046875 -6.53125 L 3.484375 0 Z M 2.84375 0 "/></g></g></g><g fill="#ffffff" fill-opacity="1"><g transform="translate(246.422888, 253.039173)"><g><path d="M 0.703125 0 L 0.703125 -6.53125 L 1.375 -6.53125 L 1.375 0 Z M 0.703125 0 "/></g></g></g><g fill="#ffffff" fill-opacity="1"><g transform="translate(251.345389, 253.039173)"><g><path d="M 1.328125 -0.875 C 0.691406 -1.5 0.375 -2.296875 0.375 -3.265625 C 0.375 -4.234375 0.691406 -5.03125 1.328125 -5.65625 C 1.972656 -6.28125 2.765625 -6.59375 3.703125 -6.59375 C 4.367188 -6.59375 4.960938 -6.441406 5.484375 -6.140625 C 6.003906 -5.835938 6.398438 -5.394531 6.671875 -4.8125 L 5.859375 -4.8125 C 5.660156 -5.195312 5.367188 -5.492188 4.984375 -5.703125 C 4.609375 -5.910156 4.179688 -6.015625 3.703125 -6.015625 C 2.941406 -6.015625 2.3125 -5.757812 1.8125 -5.25 C 1.3125 -4.75 1.0625 -4.085938 1.0625 -3.265625 C 1.0625 -2.441406 1.3125 -1.773438 1.8125 -1.265625 C 2.3125 -0.765625 2.941406 -0.515625 3.703125 -0.515625 C 4.179688 -0.515625 4.609375 -0.617188 4.984375 -0.828125 C 5.367188 -1.035156 5.660156 -1.332031 5.859375 -1.71875 L 6.671875 -1.71875 C 6.398438 -1.144531 6.003906 -0.703125 5.484375 -0.390625 C 4.960938 -0.0859375 4.367188 0.0625 3.703125 0.0625 C 2.765625 0.0625 1.972656 -0.25 1.328125 -0.875 Z M 1.328125 -0.875 "/></g></g></g><g fill="#ffffff" fill-opacity="1"><g transform="translate(261.568975, 253.039173)"><g><path d="M 4.03125 -6.53125 L 4.03125 -6 L 1.375 -6 L 1.375 -3.546875 L 3.75 -3.546875 L 3.75 -3.015625 L 1.375 -3.015625 L 1.375 -0.53125 L 4.03125 -0.53125 L 4.03125 0 L 0.703125 0 L 0.703125 -6.53125 Z M 4.03125 -6.53125 "/></g></g></g></svg>